# xmcd
#
# Track frame offsets: 
#        150
#        11250
#        23695
#        34680
#        44610
#        54490
#        62977
#        74982
#        85027
#        96102
#        113067
#        119620
#
# Disc length: 1787 seconds
#
# Revision: 7
# Processed by: cddbd v1.5.2PL0 Copyright (c) Steve Scherf et al.
# Submitted via: ExactAudioCopyFreeDBPlugin 1.0
#
DISCID=a106f90c
DTITLE=Willie Nelson - Pretty Paper
DYEAR=1979
DGENRE=Holiday
TTITLE0=Pretty Paper
TTITLE1=White Christmas
TTITLE2=Winter Wonderland
TTITLE3=Rudolph the Red-Nosed Reindeer
TTITLE4=Jingle Bells
TTITLE5=Here Comes Santa Claus
TTITLE6=Blue Christmas
TTITLE7=Santa Claus is Coming to Town
TTITLE8=Frosty the Snowman
TTITLE9=Silent Night, Holy Night
TTITLE10=O Little Town of Bethlehem
TTITLE11=Christmas Blues
EXTD=
EXTT0=
EXTT1=
EXTT2=
EXTT3=
EXTT4=
EXTT5=
EXTT6=
EXTT7=
EXTT8=
EXTT9=
EXTT10=
EXTT11=
PLAYORDER=
